<mxfile host="app.diagrams.net" agent="Mozilla/5.0 (Windows NT 10.0; Win64; x64) AppleWebKit/537.36 (KHTML, like Gecko) Chrome/137.0.0.0 Safari/537.36" version="27.1.3">
  <diagram name="Page-1" id="sSBYTdcrl_yX3A96znOe">
    <mxGraphModel dx="1426" dy="859" grid="1" gridSize="10" guides="1" tooltips="1" connect="1" arrows="1" fold="1" page="1" pageScale="1" pageWidth="827" pageHeight="1169" math="0" shadow="0">
      <root>
        <mxCell id="0" />
        <mxCell id="1" parent="0" />
        <mxCell id="4lss3NWFbt1CcSoVVE8K-3" value="" style="edgeStyle=orthogonalEdgeStyle;rounded=0;orthogonalLoop=1;jettySize=auto;html=1;" edge="1" parent="1" target="4lss3NWFbt1CcSoVVE8K-2">
          <mxGeometry relative="1" as="geometry">
            <mxPoint x="110" y="80" as="sourcePoint" />
          </mxGeometry>
        </mxCell>
        <mxCell id="4lss3NWFbt1CcSoVVE8K-6" value="" style="edgeStyle=orthogonalEdgeStyle;rounded=0;orthogonalLoop=1;jettySize=auto;html=1;" edge="1" parent="1" source="4lss3NWFbt1CcSoVVE8K-2" target="4lss3NWFbt1CcSoVVE8K-4">
          <mxGeometry relative="1" as="geometry" />
        </mxCell>
        <mxCell id="4lss3NWFbt1CcSoVVE8K-2" value="INPUT (&quot;enter num1&quot;),num1&lt;div&gt;INPUT (&quot;enter num2&quot;),num2&lt;/div&gt;" style="shape=parallelogram;perimeter=parallelogramPerimeter;whiteSpace=wrap;html=1;fixedSize=1;rounded=1;" vertex="1" parent="1">
          <mxGeometry x="50" y="160" width="220" height="100" as="geometry" />
        </mxCell>
        <mxCell id="4lss3NWFbt1CcSoVVE8K-8" value="" style="edgeStyle=orthogonalEdgeStyle;rounded=0;orthogonalLoop=1;jettySize=auto;html=1;" edge="1" parent="1" source="4lss3NWFbt1CcSoVVE8K-4" target="4lss3NWFbt1CcSoVVE8K-7">
          <mxGeometry relative="1" as="geometry" />
        </mxCell>
        <mxCell id="4lss3NWFbt1CcSoVVE8K-4" value="sum = num1 + num2" style="whiteSpace=wrap;html=1;aspect=fixed;" vertex="1" parent="1">
          <mxGeometry x="120" y="340" width="80" height="80" as="geometry" />
        </mxCell>
        <mxCell id="4lss3NWFbt1CcSoVVE8K-11" value="" style="edgeStyle=orthogonalEdgeStyle;rounded=0;orthogonalLoop=1;jettySize=auto;html=1;" edge="1" parent="1" source="4lss3NWFbt1CcSoVVE8K-7">
          <mxGeometry relative="1" as="geometry">
            <mxPoint x="205" y="695" as="targetPoint" />
          </mxGeometry>
        </mxCell>
        <mxCell id="4lss3NWFbt1CcSoVVE8K-7" value="PRINT (&quot;the sum of both numbers is:&quot;,sum)" style="shape=parallelogram;perimeter=parallelogramPerimeter;whiteSpace=wrap;html=1;fixedSize=1;" vertex="1" parent="1">
          <mxGeometry x="100" y="510" width="210" height="90" as="geometry" />
        </mxCell>
        <mxCell id="4lss3NWFbt1CcSoVVE8K-12" value="START" style="ellipse;whiteSpace=wrap;html=1;" vertex="1" parent="1">
          <mxGeometry x="50" width="120" height="80" as="geometry" />
        </mxCell>
        <mxCell id="4lss3NWFbt1CcSoVVE8K-13" value="STOP" style="ellipse;whiteSpace=wrap;html=1;" vertex="1" parent="1">
          <mxGeometry x="145" y="700" width="120" height="80" as="geometry" />
        </mxCell>
      </root>
    </mxGraphModel>
  </diagram>
</mxfile>
